<svg width="14" height="12" viewBox="0 0 14 12" fill="none" xmlns="http://www.w3.org/2000/svg">
<path d="M13.996 9.34722V10.6667C13.996 11.4019 13.3884 12 12.6416 12H1.35445C0.607584 12 0 11.4019 0 10.6667V1.33333C0 0.598139 0.607584 0 1.35445 0H12.6416C13.3884 0 13.996 0.598139 13.996 1.33333V4.22222C13.996 4.46767 13.7939 4.66667 13.5445 4.66667C13.2952 4.66667 13.093 4.46767 13.093 4.22222V1.33333C13.093 1.08828 12.8905 0.888889 12.6416 0.888889H1.35445C1.10551 0.888889 0.902968 1.08828 0.902968 1.33333V2.66667H12.1901C12.4394 2.66667 12.6416 2.86567 12.6416 3.11111C12.6416 3.35656 12.4394 3.55556 12.1901 3.55556H0.902968V10.6667C0.902968 10.9117 1.10551 11.1111 1.35445 11.1111H12.6416C12.8905 11.1111 13.093 10.9117 13.093 10.6667V9.34722C13.093 9.10178 13.2952 8.90278 13.5445 8.90278C13.7939 8.90278 13.996 9.10178 13.996 9.34722ZM1.67472 1.35278C1.42471 1.42828 1.30284 1.68758 1.37423 1.90694C1.44596 2.13864 1.69402 2.27453 1.93715 2.20278C2.16015 2.13567 2.29295 1.91619 2.24867 1.69083C2.19004 1.42158 1.92279 1.27956 1.67472 1.35278ZM2.78509 1.53111C2.64708 1.73239 2.7021 2.01256 2.90981 2.14722C3.2368 2.3645 3.68036 2.084 3.6031 1.69083C3.51621 1.29178 2.99915 1.21114 2.78509 1.53111ZM4.68753 1.3675C4.39105 1.24589 4.06336 1.46197 4.06336 1.77778C4.06336 2.02317 4.26655 2.22222 4.51484 2.22222C4.99553 2.22222 5.1527 1.55822 4.68753 1.3675ZM9.28719 9.55555C9.35636 9.01492 9.64974 7.64294 10.8763 6.58269C11.9041 5.69433 13.2778 5.3933 13.6212 5.45106C13.8299 5.48628 13.9844 5.66036 13.9954 5.86569C14.1024 7.88264 12.3327 9.39308 10.3242 9.02669C10.2419 9.29297 10.202 9.51833 10.183 9.66667C10.1519 9.91017 9.92607 10.0827 9.67866 10.0521C9.43127 10.0214 9.25601 9.79911 9.28719 9.55555ZM10.6965 8.18164C11.7603 8.28094 12.8271 7.65722 13.0547 6.431C12.0773 6.6825 11.2278 7.28017 10.6965 8.18164ZM1.58019 8.44444V4.66667C1.58019 4.42122 1.78232 4.22222 2.03168 4.22222H5.19207C5.44143 4.22222 5.64355 4.42122 5.64355 4.66667V8.44444C5.64355 8.68989 5.44143 8.88889 5.19207 8.88889H2.03168C1.78232 8.88889 1.58019 8.68992 1.58019 8.44444ZM2.48316 8H4.74058V5.11111H2.48316V8ZM6.77226 5.44444H10.3277C10.5771 5.44444 10.7792 5.24544 10.7792 5C10.7792 4.75455 10.5771 4.55555 10.3277 4.55555H6.77226C6.5229 4.55555 6.32078 4.75455 6.32078 5C6.32078 5.24544 6.5229 5.44444 6.77226 5.44444ZM9.93265 6.55556C9.93265 6.31011 9.73052 6.11111 9.48116 6.11111H6.77226C6.5229 6.11111 6.32078 6.31011 6.32078 6.55556C6.32078 6.801 6.5229 7 6.77226 7H9.48116C9.73052 7 9.93265 6.80103 9.93265 6.55556ZM8.80394 8.11111C8.80394 7.86567 8.60181 7.66667 8.35245 7.66667H6.77226C6.5229 7.66667 6.32078 7.86567 6.32078 8.11111C6.32078 8.35655 6.5229 8.55555 6.77226 8.55555H8.35245C8.60181 8.55555 8.80394 8.35658 8.80394 8.11111ZM2.03168 10.4444H6.63117C6.88053 10.4444 7.08265 10.2454 7.08265 10C7.08265 9.75455 6.88053 9.55555 6.63117 9.55555H2.03168C1.78232 9.55555 1.58019 9.75455 1.58019 10C1.58019 10.2454 1.78232 10.4444 2.03168 10.4444Z" fill="#0C2035"/>
</svg>
