<svg width="16" height="16" viewBox="0 0 16 16" fill="none" xmlns="http://www.w3.org/2000/svg">
<path d="M9.04337 9.95139C9.22457 9.92241 9.35781 9.76612 9.35781 9.58266M9.04337 9.95139L9.02758 9.85265L9.04338 9.95139L9.04337 9.95139ZM9.04337 9.95139L8.29948 10.0704M9.35781 9.58266L8.23167 9.98001L8.29948 10.0704M9.35781 9.58266V9.15834M9.35781 9.58266V9.15834M8.29948 10.0704L9.80469 12.0774M8.29948 10.0704L8.18788 10.0883L9.80469 12.0774M9.80469 12.0774L11.3099 10.0704L10.566 9.95139L10.566 9.95139L10.5818 9.85265L9.80469 12.0774ZM9.35781 9.15834C9.50473 9.18174 9.65395 9.19375 9.80469 9.19375C9.95542 9.19375 10.1047 9.18174 10.2516 9.15834L9.35781 9.15834ZM12.9207 9.57185L12.9207 9.57185L10.9984 9.26423V8.93056C11.9898 8.47018 12.6391 7.4686 12.6391 6.3594V5.33831H13.9062C14.1125 5.33831 14.2797 5.17109 14.2797 4.96487V4.65151C14.2797 3.93979 13.7008 3.36094 12.9891 3.36094H12.6145C12.4311 1.97383 11.2412 0.9 9.80469 0.9C8.36821 0.9 7.17827 1.97383 6.99489 3.36094H6.62023C5.90854 3.36094 5.32969 3.93979 5.32969 4.65148V4.96484C5.32969 5.17106 5.49687 5.33828 5.70312 5.33828H6.97031V6.35938C6.97031 7.46863 7.61965 8.47024 8.61094 8.93056V9.26423L6.68865 9.57185C5.43504 9.77254 4.50937 10.855 4.50937 12.1275V14.7266C4.50937 14.9328 4.67656 15.1 4.88281 15.1H14.7266C14.9328 15.1 15.1 14.9328 15.1 14.7266V12.1275C15.1 10.858 14.1773 9.773 12.9207 9.57185ZM9.80469 1.64688C10.828 1.64688 11.6815 2.38755 11.858 3.36094H7.75133C7.9279 2.38755 8.78135 1.64688 9.80469 1.64688ZM7.71719 6.35938V5.33828H8.60159C8.80781 5.33828 8.97503 5.17106 8.97503 4.96484C8.97503 4.75862 8.80781 4.59141 8.60159 4.59141H8.59992H8.59821H8.59646H8.59467H8.59284H8.59097H8.58907H8.58713H8.58514H8.58312H8.58106H8.57897H8.57683H8.57466H8.57245H8.57021H8.56792H8.5656H8.56324H8.56085H8.55842H8.55595H8.55345H8.55091H8.54834H8.54572H8.54308H8.5404H8.53768H8.53493H8.53214H8.52932H8.52646H8.52357H8.52064H8.51768H8.51469H8.51166H8.5086H8.5055H8.50237H8.49921H8.49602H8.49279H8.48953H8.48623H8.48291H8.47955H8.47616H8.47273H8.46928H8.46579H8.46227H8.45872H8.45514H8.45153H8.44788H8.44421H8.4405H8.43677H8.433H8.42921H8.42538H8.42152H8.41763H8.41372H8.40977H8.4058H8.40179H8.39776H8.3937H8.38961H8.38549H8.38134H8.37716H8.37296H8.36873H8.36447H8.36018H8.35586H8.35152H8.34715H8.34275H8.33833H8.33388H8.3294H8.32489H8.32036H8.31581H8.31123H8.30662H8.30198H8.29732H8.29264H8.28793H8.28319H8.27843H8.27365H8.26884H8.264H8.25914H8.25426H8.24936H8.24442H8.23947H8.23449H8.22949H8.22447H8.21942H8.21435H8.20925H8.20414H8.199H8.19384H8.18865H8.18345H8.17822H8.17297H8.1677H8.16241H8.1571H8.15176H8.14641H8.14103H8.13563H8.13022H8.12478H8.11932H8.11384H8.10834H8.10283H8.09729H8.09173H8.08616H8.08056H8.07495H8.06931H8.06366H8.05799H8.0523H8.04659H8.04087H8.03513H8.02936H8.02359H8.01779H8.01198H8.00615H8.0003H7.99443H7.98855H7.98265H7.97674H7.97081H7.96486H7.9589H7.95292H7.94693H7.94092H7.93489H7.92885H7.9228H7.91673H7.91064H7.90454H7.89843H7.8923H7.88616H7.88H7.87383H7.86765H7.86145H7.85524H7.84902H7.84278H7.83653H7.83027H7.82399H7.81771H7.81141H7.80509H7.79877H7.79243H7.78609H7.77973H7.77336H7.76697H7.76058H7.75418H7.74776H7.74134H7.7349H7.72846H7.722H7.71553H7.70906H7.70257H7.69607H7.68957H7.68306H7.67653H7.67H7.66346H7.65691H7.65035H7.64378H7.63721H7.63063H7.62404H7.61744H7.61083H7.60422H7.5976H7.59097H7.58434H7.57769H7.57105H7.56439H7.55773H7.55106H7.54439H7.53771H7.53102H7.52433H7.51764H7.51094H7.50423H7.49752H7.4908H7.48408H7.47735H7.47062H7.46389H7.45715H7.45041H7.44366H7.43691H7.43016H7.4234H7.41664H7.40988H7.40311H7.39635H7.38958H7.3828H7.37603H7.36925H7.36247H7.35569H7.3489H7.34212H7.33533H7.32855H7.32176H7.31497H7.30818H7.30139H7.2946H7.28781H7.28102H7.27422H7.26743H7.26064H7.25385H7.24706H7.24027H7.23349H7.2267H7.21991H7.21313H7.20635H7.19957H7.19279H7.18601H7.17924H7.17246H7.16569H7.15893H7.15216H7.1454H7.13864H7.13189H7.12513H7.11838H7.11164H7.1049H7.09816H7.09143H7.0847H7.07798H7.07126H7.06454H7.05783H7.05113H7.04443H7.03773H7.03104H7.02436H7.01768H7.01101H7.00435H6.99769H6.99103H6.98439H6.97775H6.97112H6.96449H6.95787H6.95126H6.94466H6.93806H6.93147H6.92489H6.91832H6.91176H6.9052H6.89866H6.89212H6.88559H6.87907H6.87256H6.86606H6.85956H6.85308H6.84661H6.84015H6.83369H6.82725H6.82082H6.8144H6.80799H6.80159H6.7952H6.78882H6.78245H6.7761H6.76975H6.76342H6.7571H6.75079H6.7445H6.73821H6.73194H6.72568H6.71944H6.71321H6.70699H6.70078H6.69459H6.68841H6.68224H6.67609H6.66996H6.66383H6.65772H6.65163H6.64555H6.63948H6.63343H6.6274H6.62138H6.61538H6.60939H6.60341H6.59746H6.59152H6.58559H6.57968H6.57379H6.56791H6.56206H6.55621H6.55039H6.54458H6.53879H6.53302H6.52726H6.52153H6.51581H6.51011H6.50442H6.49876H6.49311H6.48749H6.48188H6.47629H6.47072H6.46517H6.45964H6.45413H6.44864H6.44317H6.43771H6.43228H6.42687H6.42148H6.41611H6.41077H6.40544H6.40013H6.39485H6.38958H6.38434H6.37912H6.37393H6.36875H6.3636H6.35847H6.35336H6.34827H6.34321H6.33817H6.33315H6.32816H6.32319H6.31824H6.31332H6.30842H6.30355H6.2987H6.29387H6.28907H6.28429H6.27954H6.27481H6.27011H6.26544H6.26078H6.25616H6.25156H6.24699H6.24244H6.23792H6.23342H6.22895H6.22451H6.2201H6.21571H6.21135H6.20701H6.20271H6.19843H6.19418H6.18996H6.18576H6.18159H6.17746H6.17335H6.16927H6.16521H6.16119H6.15719H6.15323H6.14929H6.14539H6.14151H6.13767H6.13385H6.13006H6.12631H6.12258H6.11889H6.11522H6.11159H6.10799H6.10442H6.10088H6.09737H6.09389H6.09045H6.08704H6.08366H6.08031H6.07986C6.10987 4.31986 6.34084 4.10781 6.62023 4.10781H12.9891C13.2685 4.10781 13.4995 4.31986 13.5295 4.59141H13.5281H13.525H13.5218H13.5185H13.5152H13.5119H13.5086H13.5052H13.5018H13.4984H13.4949H13.4914H13.4878H13.4843H13.4807H13.4771H13.4734H13.4697H13.466H13.4622H13.4584H13.4546H13.4508H13.4469H13.443H13.4391H13.4351H13.4311H13.4271H13.4231H13.419H13.4149H13.4108H13.4066H13.4024H13.3982H13.3939H13.3897H13.3854H13.381H13.3767H13.3723H13.3679H13.3634H13.359H13.3545H13.35H13.3454H13.3409H13.3363H13.3317H13.327H13.3223H13.3176H13.3129H13.3082H13.3034H13.2986H13.2938H13.2889H13.2841H13.2792H13.2743H13.2693H13.2644H13.2594H13.2544H13.2493H13.2443H13.2392H13.2341H13.229H13.2238H13.2187H13.2135H13.2083H13.203H13.1978H13.1925H13.1872H13.1819H13.1766H13.1712H13.1658H13.1604H13.155H13.1496H13.1441H13.1386H13.1331H13.1276H13.1221H13.1165H13.1109H13.1053H13.0997H13.0941H13.0884H13.0828H13.0771H13.0714H13.0656H13.0599H13.0541H13.0484H13.0426H13.0368H13.0309H13.0251H13.0192H13.0134H13.0075H13.0016H12.9956H12.9897H12.9837H12.9778H12.9718H12.9658H12.9598H12.9537H12.9477H12.9416H12.9356H12.9295H12.9234H12.9173H12.9111H12.905H12.8988H12.8927H12.8865H12.8803H12.8741H12.8679H12.8616H12.8554H12.8491H12.8429H12.8366H12.8303H12.824H12.8177H12.8113H12.805H12.7987H12.7923H12.7859H12.7795H12.7732H12.7668H12.7603H12.7539H12.7475H12.7411H12.7346H12.7281H12.7217H12.7152H12.7087H12.7022H12.6957H12.6892H12.6827H12.6762H12.6696H12.6631H12.6566H12.65H12.6434H12.6369H12.6303H12.6237H12.6171H12.6105H12.6039H12.5973H12.5907H12.5841H12.5775H12.5708H12.5642H12.5575H12.5509H12.5442H12.5376H12.5309H12.5243H12.5176H12.5109H12.5042H12.4976H12.4909H12.4842H12.4775H12.4708H12.4641H12.4574H12.4507H12.444H12.4373H12.4306H12.4239H12.4172H12.4105H12.4037H12.397H12.3903H12.3836H12.3769H12.3701H12.3634H12.3567H12.35H12.3433H12.3365H12.3298H12.3231H12.3164H12.3097H12.3029H12.2962H12.2895H12.2828H12.2761H12.2694H12.2626H12.2559H12.2492H12.2425H12.2358H12.2291H12.2224H12.2157H12.209H12.2023H12.1957H12.189H12.1823H12.1756H12.1689H12.1623H12.1556H12.149H12.1423H12.1357H12.129H12.1224H12.1157H12.1091H12.1025H12.0959H12.0893H12.0827H12.0761H12.0695H12.0629H12.0563H12.0497H12.0432H12.0366H12.03H12.0235H12.017H12.0104H12.0039H11.9974H11.9909H11.9844H11.9779H11.9714H11.965H11.9585H11.952H11.9456H11.9392H11.9327H11.9263H11.9199H11.9135H11.9071H11.9008H11.8944H11.888H11.8817H11.8754H11.869H11.8627H11.8564H11.8501H11.8439H11.8376H11.8313H11.8251H11.8189H11.8127H11.8065H11.8003H11.7941H11.7879H11.7818H11.7757H11.7695H11.7634H11.7573H11.7512H11.7452H11.7391H11.7331H11.7271H11.7211H11.7151H11.7091H11.7031H11.6972H11.6912H11.6853H11.6794H11.6735H11.6677H11.6618H11.656H11.6502H11.6444H11.6386H11.6328H11.6271H11.6213H11.6156H11.6099H11.6042H11.5986H11.5929H11.5873H11.5817H11.5761H11.5706H11.565H11.5595H11.554H11.5485H11.543H11.5376H11.5321H11.5267H11.5213H11.516H11.5106H11.5053H11.5H11.4947H11.4894H11.4842H11.4789H11.4737H11.4686H11.4634H11.4583H11.4532H11.4481H11.443H11.438H11.4329H11.4279H11.423H11.418H11.4131H11.4082H11.4033H11.3984H11.3936H11.3888H11.384H11.3793H11.3745H11.3698H11.3651H11.3605H11.3558H11.3512H11.3466H11.3421H11.3376H11.3331H11.3286H11.3241H11.3197H11.3153H11.3109H11.3066H11.3023H11.298H11.2937H11.2895H11.2853H11.2811H11.277H11.2728H11.2687H11.2647H11.2606H11.2566H11.2527H11.2487H11.2448H11.2409H11.237H11.2332H11.2294H11.2257H11.2219H11.2182H11.2145H11.2109H11.2073H11.2037H11.2001H11.1966H11.1931H11.1897H11.1862H11.1829H11.1795H11.1762H11.1729H11.1696H11.1664H11.1632H11.16H11.1569H11.1538H11.1507H11.1477H11.1447H11.1417H11.1388H11.1359H11.1331H11.1303H11.1275H11.1247H11.122H11.1193H11.1167H11.1141H11.1115H11.1089H11.1064H11.104H11.1015H11.0992H11.0968H11.0945H11.0922H11.09H11.0877H11.0856H11.0834H11.0813H11.0793H11.0773H11.0753H11.0734H11.0715H11.0696H11.0678H11.066H11.0642H11.0625C10.8563 4.59141 10.6891 4.75862 10.6891 4.96484C10.6891 5.17106 10.8563 5.33828 11.0625 5.33828H11.8922V6.35938C11.8922 7.50024 10.9686 8.44688 9.80469 8.44688C8.64083 8.44688 7.71719 7.50031 7.71719 6.35938ZM10.2789 14.3531H9.35781V13.2953H10.2789V14.3531ZM5.25625 12.1275C5.25625 11.2175 5.90804 10.4532 6.80667 10.3093L7.46594 10.2038L9.22434 12.5484H8.98438C8.77815 12.5484 8.61094 12.7157 8.61094 12.9219V14.3531H6.89687V12.9219C6.89687 12.7157 6.72969 12.5484 6.52344 12.5484C6.31718 12.5484 6.15 12.7157 6.15 12.9219V14.3531H5.25625V12.1275ZM13.4594 14.3531V12.9219C13.4594 12.7157 13.2922 12.5484 13.0859 12.5484C12.8797 12.5484 12.7125 12.7157 12.7125 12.9219V14.3531H11.0258V12.9219C11.0258 12.7157 10.8586 12.5484 10.6523 12.5484H10.385L12.1434 10.2038L12.8027 10.3093C13.7013 10.4532 14.3531 11.2175 14.3531 12.1275V14.3531H13.4594Z" fill="#0C2035" stroke="#0C2035" stroke-width="0.2"/>
<path d="M10.7507 6.90643C10.8264 6.7757 10.7816 6.60844 10.6509 6.53286C10.5202 6.45726 10.3529 6.50199 10.2773 6.63272C10.1798 6.80146 9.99836 6.9063 9.80391 6.9063C9.60947 6.9063 9.42807 6.80146 9.33051 6.63272C9.25496 6.50205 9.08775 6.45723 8.95694 6.53286C8.82621 6.60844 8.78148 6.7757 8.85708 6.90643C9.05204 7.24366 9.41484 7.45317 9.80391 7.45317C10.193 7.45317 10.5558 7.24366 10.7507 6.90643Z" fill="#0C2035"/>
<path d="M6.33401 8.5108L6.33401 8.5108L6.29687 7.91018L6.33401 7.81733L6.33399 7.81732L2.46719 6.27059V4.88281C2.46719 4.6766 2.3 4.50937 2.09375 4.50937C1.8875 4.50937 1.72031 4.6766 1.72031 4.88281V14.3531H1.27344C1.06718 14.3531 0.9 14.5203 0.9 14.7266C0.9 14.9328 1.06718 15.1 1.27344 15.1H2.91406C3.12032 15.1 3.2875 14.9328 3.2875 14.7266C3.2875 14.5203 3.12032 14.3531 2.91406 14.3531H2.46719V10.0575L6.33401 8.5108ZM2.46719 7.07503L5.18979 8.16406L2.46719 9.25309V7.07503Z" fill="#0C2035" stroke="#0C2035" stroke-width="0.2"/>
</svg>
