<svg id="Group_38153" data-name="Group 38153" xmlns="http://www.w3.org/2000/svg" width="214.14" height="39.008" viewBox="0 0 214.14 39.008">
  <g id="Group_1554" data-name="Group 1554" transform="translate(0 0)">
    <g id="Group_1552" data-name="Group 1552">
      <g id="Group_1547" data-name="Group 1547">
        <path id="Path_1669" data-name="Path 1669" d="M435.112,320.392a19.5,19.5,0,1,1,19.5-19.5A19.526,19.526,0,0,1,435.112,320.392Zm0-36.471a16.967,16.967,0,1,0,16.967,16.967A16.986,16.986,0,0,0,435.112,283.921Z" transform="translate(-415.608 -281.384)" fill="#042a45"/>
      </g>
      <g id="Group_1551" data-name="Group 1551" transform="translate(8.32 10.048)">
        <g id="Group_1548" data-name="Group 1548" transform="translate(0 0.011)">
          <path id="Path_1670" data-name="Path 1670" d="M434.388,311.315a.6.6,0,0,1-.64.6,9.945,9.945,0,0,1,0-19.849.6.6,0,0,1,.64.6Z" transform="translate(-424.443 -292.066)" fill="#042a45"/>
        </g>
        <g id="Group_1549" data-name="Group 1549" transform="translate(12.084)">
          <path id="Path_1671" data-name="Path 1671" d="M445.651,301.069a9.039,9.039,0,0,1-8.375-8.375.6.6,0,0,1,.6-.64h7.812a.6.6,0,0,1,.6.6v7.813A.6.6,0,0,1,445.651,301.069Z" transform="translate(-437.275 -292.054)" fill="#042a45"/>
        </g>
        <g id="Group_1550" data-name="Group 1550" transform="translate(12.063 10.845)">
          <path id="Path_1672" data-name="Path 1672" d="M446.267,304.21a9.038,9.038,0,0,1-8.375,8.375.6.6,0,0,1-.639-.6v-7.812a.6.6,0,0,1,.6-.6h7.812A.6.6,0,0,1,446.267,304.21Z" transform="translate(-437.253 -303.57)" fill="#042a45"/>
        </g>
      </g>
    </g>
    <g id="Group_1553" data-name="Group 1553" transform="translate(46.287 5.87)">
      <path id="Path_1673" data-name="Path 1673" d="M465.3,313.092l2.032-3.276a5.964,5.964,0,0,0,4.459,1.7c1.547,0,3.731-.668,3.731-3.458v-1.122a5.467,5.467,0,0,1-4.337,2.154c-3.58,0-6.43-2.457-6.43-7.4,0-4.823,2.759-7.37,6.43-7.37a5.4,5.4,0,0,1,4.337,2.092V294.68H480.2v13.376c0,5.945-4.762,7.219-8.4,7.219A9.682,9.682,0,0,1,465.3,313.092Zm10.222-9.433v-3.913a3.753,3.753,0,0,0-2.791-1.3,3.261,3.261,0,0,0,0,6.521A3.756,3.756,0,0,0,475.527,303.659Z" transform="translate(-464.759 -288.008)" fill="#042a45"/>
      <path id="Path_1674" data-name="Path 1674" d="M484.76,309.329v-14.65h4.671v1.789a6.416,6.416,0,0,1,4.581-2.184v4.489a3.949,3.949,0,0,0-1.153-.121,4.757,4.757,0,0,0-3.428,1.335v9.342Z" transform="translate(-465.925 -288.006)" fill="#042a45"/>
      <path id="Path_1675" data-name="Path 1675" d="M505.425,309.331v-1.456a6.056,6.056,0,0,1-4.55,1.819,4.856,4.856,0,0,1-5.035-4.823c0-3.548,2.79-4.731,5.035-4.731a5.869,5.869,0,0,1,4.55,1.728v-1.456c0-1.273-1.092-2.153-2.973-2.153a6.409,6.409,0,0,0-4.095,1.577l-1.729-3.246a10.332,10.332,0,0,1,6.643-2.274c3.518,0,6.825,1.3,6.825,5.854v9.16Zm0-3.761v-1.3a3.235,3.235,0,0,0-2.609-1.031c-1.214,0-2.335.546-2.335,1.7s1.122,1.7,2.335,1.7A3.252,3.252,0,0,0,505.425,305.57Z" transform="translate(-466.57 -288.008)" fill="#042a45"/>
      <path id="Path_1676" data-name="Path 1676" d="M519.256,307.6v7.31h-4.671V294.68h4.671v1.7a5.466,5.466,0,0,1,4.338-2.062c3.67,0,6.43,2.729,6.43,7.673,0,4.975-2.76,7.7-6.43,7.7A5.444,5.444,0,0,1,519.256,307.6Zm6.006-5.612a3.236,3.236,0,0,0-3.216-3.549,3.735,3.735,0,0,0-2.79,1.334v4.459a3.842,3.842,0,0,0,2.79,1.334C523.867,305.57,525.262,304.205,525.262,301.99Z" transform="translate(-467.663 -288.008)" fill="#042a45"/>
      <path id="Path_1677" data-name="Path 1677" d="M543.506,309.008v-8.524c0-1.789-.94-2.366-2.426-2.366a3.6,3.6,0,0,0-2.822,1.426v9.463h-4.671V288.777h4.671v7.37a6.622,6.622,0,0,1,5.066-2.153c3.336,0,4.854,1.88,4.854,4.58v10.434Z" transform="translate(-468.77 -287.685)" fill="#042a45"/>
      <path id="Path_1678" data-name="Path 1678" d="M552.334,290.287a2.684,2.684,0,0,1,5.369,0,2.684,2.684,0,1,1-5.369,0Zm.333,18.654V294.29h4.671v14.65Z" transform="translate(-469.863 -287.617)" fill="#042a45"/>
      <path id="Path_1679" data-name="Path 1679" d="M560.257,301.99c0-4.58,3.4-7.673,7.977-7.673,3.184,0,5.126,1.395,6.005,2.7l-3.033,2.821a3.2,3.2,0,0,0-2.76-1.4,3.565,3.565,0,1,0,2.76,5.7L574.24,307a7.057,7.057,0,0,1-6.005,2.7C563.654,309.694,560.257,306.571,560.257,301.99Z" transform="translate(-470.324 -288.008)" fill="#042a45"/>
      <path id="Path_1680" data-name="Path 1680" d="M576.039,307.42l1.941-3.337a9.167,9.167,0,0,0,5.157,1.971c1.395,0,1.971-.394,1.971-1.031,0-1.819-8.522.061-8.522-5.884,0-2.578,2.244-4.823,6.279-4.823a10.245,10.245,0,0,1,6.127,1.941l-1.789,3.306a6.549,6.549,0,0,0-4.307-1.608c-1.092,0-1.82.425-1.82,1,0,1.608,8.493-.06,8.493,5.945,0,2.791-2.457,4.792-6.643,4.792A10.789,10.789,0,0,1,576.039,307.42Z" transform="translate(-471.244 -288.008)" fill="#042a45"/>
      <path id="Path_1681" data-name="Path 1681" d="M592.369,309.353V305.9l5.884-7.158h-5.884V294.7h12.224v3.306l-6.006,7.31h6.128v4.034Z" transform="translate(-472.196 -288.03)" fill="#042a45"/>
      <path id="Path_1682" data-name="Path 1682" d="M607.506,301.99a7.528,7.528,0,0,1,7.947-7.673c5.036,0,8.007,3.548,8.007,7.673a7.982,7.982,0,0,1-15.955,0Zm11.162,0c0-1.941-1.152-3.549-3.215-3.549-2,0-3.155,1.608-3.155,3.549,0,1.972,1.153,3.579,3.155,3.579C617.516,305.57,618.668,303.962,618.668,301.99Z" transform="translate(-473.078 -288.008)" fill="#042a45"/>
      <path id="Path_1683" data-name="Path 1683" d="M626.058,301.99a7.528,7.528,0,0,1,7.947-7.673c5.036,0,8.007,3.548,8.007,7.673a7.982,7.982,0,0,1-15.955,0Zm11.162,0c0-1.941-1.153-3.549-3.215-3.549-2,0-3.155,1.608-3.155,3.549,0,1.972,1.153,3.579,3.155,3.579C636.068,305.57,637.22,303.962,637.22,301.99Z" transform="translate(-474.159 -288.008)" fill="#042a45"/>
    </g>
  </g>
</svg>
